<svg xmlns="http://www.w3.org/2000/svg" width="24.289" height="13.763" viewBox="0 0 24.289 13.763">
  <path id="bus" d="M15.416,11.335H8.874a2.83,2.83,0,0,1-5.6,0H1.214A1.214,1.214,0,0,1,0,10.121V1.214A1.214,1.214,0,0,1,1.214,0H21.321a1.212,1.212,0,0,1,1.121.747L24.2,4.957a1.192,1.192,0,0,1,.093.467v4.7a1.214,1.214,0,0,1-1.214,1.214H21.019a2.83,2.83,0,0,1-5.6,0Zm.817-.806a2.023,2.023,0,1,0,1.982-1.621A2.024,2.024,0,0,0,16.233,10.529Zm-12.145,0A2.023,2.023,0,1,0,6.07,8.908,2.024,2.024,0,0,0,4.089,10.529Zm16.93,0h2.056a.406.406,0,0,0,.405-.4V7.286H14.574v3.239h.842a2.83,2.83,0,0,1,5.6,0Zm-10.493,0h3.238v-8.1H10.526Zm-1.651,0h.841V7.286H.81v2.834a.4.4,0,0,0,.4.4H3.271a2.83,2.83,0,0,1,5.6,0Zm5.7-8.906V6.477H23.48v-.81h-8.1V1.619h6.545l-.234-.561A.4.4,0,0,0,21.321.81H1.214a.4.4,0,0,0-.4.4V6.477H9.715V1.619Zm4.858,3.239h3.846L22.265,2.429H19.432Zm-3.239,0h2.429V2.429H16.193Zm.885,6.476a1.13,1.13,0,0,1,0-.809,1.207,1.207,0,0,1,2.28,0,1.139,1.139,0,0,1,0,.809,1.207,1.207,0,0,1-2.28,0Zm.735-.4a.4.4,0,1,0,.4-.4A.4.4,0,0,0,17.813,10.93Zm-12.88.4a1.13,1.13,0,0,1,0-.809,1.207,1.207,0,0,1,2.28,0,1.139,1.139,0,0,1,0,.809,1.207,1.207,0,0,1-2.28,0Zm.735-.4a.4.4,0,1,0,.405-.4A.4.4,0,0,0,5.668,10.93ZM1.619,5.667V1.619H8.906V5.667Zm4.048-.81H8.1V2.429H5.667Zm-3.238,0H4.857V2.429H2.429Z"/>
</svg>
