<svg xmlns="http://www.w3.org/2000/svg" width="24" height="16.612" viewBox="0 0 24 16.612">
  <path id="mercadopago_iso" d="M7.044,15.958a12.15,12.15,0,0,1-3.782-1.779A7.212,7.212,0,0,1,0,8.307v-.13c0-.1,0-.258,0-.329A5.569,5.569,0,0,1,.944,4.8,8.627,8.627,0,0,1,3.517,2.3,13.5,13.5,0,0,1,7.329.619a17.923,17.923,0,0,1,9.342,0A13.482,13.482,0,0,1,20.485,2.3,8.627,8.627,0,0,1,23.059,4.8,5.569,5.569,0,0,1,24,7.848V8.31a6.6,6.6,0,0,1-.841,3.232,8.157,8.157,0,0,1-2.4,2.64,12.106,12.106,0,0,1-3.78,1.777A18.154,18.154,0,0,1,12,16.612,18.03,18.03,0,0,1,7.044,15.958ZM.465,7.845c0,1.971,1.2,3.824,3.379,5.22A15.316,15.316,0,0,0,12,15.226a15.316,15.316,0,0,0,8.16-2.16c2.178-1.4,3.379-3.249,3.379-5.22q0-.186-.014-.37a29.869,29.869,0,0,0-4.788,1.5,1.083,1.083,0,0,1,.16.661,1.056,1.056,0,0,1-.5.818,1.336,1.336,0,0,1-.723.221,1.115,1.115,0,0,1-.256-.027,1.115,1.115,0,0,1-.553.993,1.4,1.4,0,0,1-.772.246,1.247,1.247,0,0,1-.253-.027v.01a1.034,1.034,0,0,1-.445.644,1.249,1.249,0,0,1-.75.27,1.322,1.322,0,0,1-.374-.059.525.525,0,0,1-.049.079,1.059,1.059,0,0,1-.786.386,1.4,1.4,0,0,1-.177.012,2.583,2.583,0,0,1-1.163-.349,1.37,1.37,0,0,1-2.254-.435.973.973,0,0,1-.356.064,1.246,1.246,0,0,1-.457-.093,1.231,1.231,0,0,1-.723-.676,1.075,1.075,0,0,1-.265.032,1.2,1.2,0,0,1-.415-.079,1.363,1.363,0,0,1-.877-1.015,1.214,1.214,0,0,1-.214.02A1.171,1.171,0,0,1,5.373,9.5a1.152,1.152,0,0,1,.091-.445c-.175-.138-1.2-.855-4.308-1.543L.489,7.358A4.834,4.834,0,0,0,.465,7.845Zm9.713,4.1a.932.932,0,0,0,.939.9.94.94,0,1,0,0-1.88,1.2,1.2,0,0,0-.369.081.471.471,0,0,1-.133.034H10.6l-.027-.012c-.057-.037-.054-.1,0-.246,0-.01.317-.885-.374-1.182a1.046,1.046,0,0,0-.4-.091.731.731,0,0,0-.538.229.127.127,0,0,1-.086.044c-.012,0-.081,0-.088-.1a.739.739,0,0,0-.519-.688,1.043,1.043,0,0,0-.317-.052,1.074,1.074,0,0,0-.853.467l-.108.167-.025-.2a.735.735,0,1,0-.219.619l.047-.044.052.042a.1.1,0,0,1,.029.093.98.98,0,0,0,.614,1.138.685.685,0,0,0,.253.052.792.792,0,0,0,.457-.162.157.157,0,0,1,.093-.037h.032l.034.027a.139.139,0,0,1,.017.113c-.022.15-.015.516.524.732a.792.792,0,0,0,.3.066.664.664,0,0,0,.462-.209.182.182,0,0,1,.113-.059C10.173,11.785,10.178,11.9,10.178,11.942Zm.194-2.7a1.218,1.218,0,0,1,.7,1.288h.049a1.375,1.375,0,0,1,1.244,1.959,2.118,2.118,0,0,0,.9.265.674.674,0,0,0,.123-.007c.334-.042.445-.152.479-.2a.237.237,0,0,0,.034-.061l-.922-1.015c-.057-.054-.189-.2-.1-.3a.127.127,0,0,1,.1-.044.375.375,0,0,1,.209.113c.45.376,1,.931,1.052.993l.015.012a.362.362,0,0,0,.214.091.863.863,0,0,0,.145.012.854.854,0,0,0,.526-.167.946.946,0,0,0,.1-.1l.039-.047a.42.42,0,0,0-.025-.519l-1.081-1.212a.691.691,0,0,1-.074-.084c-.084-.111-.059-.177-.027-.214a.125.125,0,0,1,.093-.039.392.392,0,0,1,.221.113c.292.246.693.639,1.081,1.02l.211.211a.775.775,0,0,0,.423.128.951.951,0,0,0,.524-.175.671.671,0,0,0,.351-.612.688.688,0,0,0-.2-.4l-1.48-1.487c-.1-.084-.177-.206-.106-.3a.125.125,0,0,1,.1-.047.394.394,0,0,1,.221.118c.465.388,1.73,1.551,1.745,1.561a.8.8,0,0,0,.428.125.9.9,0,0,0,.487-.152.592.592,0,0,0,.295-.472.722.722,0,0,0-.221-.543C18.195,9.027,14.5,5.8,13.663,5.166a1.98,1.98,0,0,0-1-.477.626.626,0,0,0-.1,0,1.462,1.462,0,0,0-.369.049,4.508,4.508,0,0,0-1.327.794,3.9,3.9,0,0,1-1.347.828,1.992,1.992,0,0,1-.43.044,2.136,2.136,0,0,1-1.081-.273.737.737,0,0,1-.268-.3.518.518,0,0,1,.14-.563L8.9,4.166l.2-.194c-.248.047-.482.111-.7.172a4.144,4.144,0,0,1-1.1.2c-.167,0-.334-.017-.489-.029a17.207,17.207,0,0,1-3.806-1.1A6.4,6.4,0,0,0,.566,6.859c.209.059.541.156.687.188A12.313,12.313,0,0,1,5.719,8.678a1.157,1.157,0,0,1,1.723.1,1.315,1.315,0,0,1,.769-.246,1.54,1.54,0,0,1,.492.088,1.16,1.16,0,0,1,.673.57,1.148,1.148,0,0,1,.42-.076A1.46,1.46,0,0,1,10.372,9.239Zm2.637-4.977a3.1,3.1,0,0,1,.929.541c.713.536,3.343,2.822,4.48,3.814a27.676,27.676,0,0,1,5.046-1.638,6.226,6.226,0,0,0-2.27-3.6,7.936,7.936,0,0,1-3.351.8,6.916,6.916,0,0,1-3.055-.732,6.09,6.09,0,0,0-2.241-.531l-.086,0A4.168,4.168,0,0,0,9.231,4.483l-1,1.079-.007.007c-.047.061-.061.1-.039.128a1.093,1.093,0,0,0,.809.261,1.938,1.938,0,0,0,.43-.047,3.767,3.767,0,0,0,1.165-.742l.022-.017a4.7,4.7,0,0,1,1.364-.863,1.874,1.874,0,0,1,.578-.1A1.559,1.559,0,0,1,13.009,4.262ZM6.931,3.878c.022,0,.246.012.371.012A3.781,3.781,0,0,0,8.283,3.7a5.467,5.467,0,0,1,1.386-.253,4.247,4.247,0,0,1,2.782-.988h.1a6.467,6.467,0,0,1,2.441.575,6.476,6.476,0,0,0,2.861.688,7.379,7.379,0,0,0,2.942-.667q-.3-.223-.626-.434A15.317,15.317,0,0,0,12,.462a15.317,15.317,0,0,0-8.16,2.163q-.217.139-.421.284A18.985,18.985,0,0,0,6.931,3.878Z"/>
</svg>
