<svg xmlns="http://www.w3.org/2000/svg" width="24" height="10.544" viewBox="0 0 24 10.544">
  <path id="mercadopago_logo" d="M13.47,10.539a1.408,1.408,0,0,1-1.41-1.068h.9a.637.637,0,0,0,.3.265.621.621,0,0,0,.407.05.671.671,0,0,0,.372-.242,1.019,1.019,0,0,0,.192-.6V8.739a.942.942,0,0,1-.6.433,1.219,1.219,0,0,1-.746-.062,1.38,1.38,0,0,1-.637-.552A1.9,1.9,0,0,1,11.984,7.5a2.055,2.055,0,0,1,.352-1.247,1.354,1.354,0,0,1,1.133-.478,1.572,1.572,0,0,1,1.1.323,1.382,1.382,0,0,1,.506,1.192V9.037a1.462,1.462,0,0,1-1.464,1.508Q13.543,10.545,13.47,10.539Zm-.5-3.726a1.612,1.612,0,0,0-.148.709q0,.856.494.949a.675.675,0,0,0,.729-.231.932.932,0,0,0,.162-.427,1.846,1.846,0,0,0,.006-.578,1.154,1.154,0,0,0-.206-.508.539.539,0,0,0-.469-.224A.572.572,0,0,0,12.974,6.813ZM5.4,10.262V7.284A1.374,1.374,0,0,1,5.914,6.1a1.726,1.726,0,0,1,1.122-.316,1.5,1.5,0,0,1,1.121.464,1.827,1.827,0,0,1,.4,1.237,2.014,2.014,0,0,1-.377,1.269,1.184,1.184,0,0,1-.969.471,1.292,1.292,0,0,1-.555-.111.932.932,0,0,1-.4-.386V9.84a.4.4,0,0,1-.128.3.412.412,0,0,1-.3.125ZM6.43,6.776a1.262,1.262,0,0,0-.175.745,1.117,1.117,0,0,0,.189.709.625.625,0,0,0,.541.26A.6.6,0,0,0,7.5,8.23a1.185,1.185,0,0,0,.189-.709A1.256,1.256,0,0,0,7.5,6.776a.629.629,0,0,0-.542-.262A.618.618,0,0,0,6.43,6.776ZM9.81,9.24a1.157,1.157,0,0,1-.736-.254.9.9,0,0,1-.291-.717A.928.928,0,0,1,9.251,7.4a2.1,2.1,0,0,1,.754-.21l.291-.036a1.384,1.384,0,0,0,.343-.075.258.258,0,0,0,.184-.243.287.287,0,0,0-.142-.276.884.884,0,0,0-.415-.076.541.541,0,0,0-.433.15.612.612,0,0,0-.122.3H8.888a1.257,1.257,0,0,1,.24-.7A1.41,1.41,0,0,1,10.3,5.8a2.077,2.077,0,0,1,.955.212.814.814,0,0,1,.418.8V8.035c-.017.213,0,1.209-1.659,1.209C9.946,9.244,9.879,9.243,9.81,9.24Zm.843-1.608a1.318,1.318,0,0,1-.229.059l-.193.036a1.277,1.277,0,0,0-.393.117.389.389,0,0,0-.2.362.376.376,0,0,0,.123.316.461.461,0,0,0,.3.1.9.9,0,0,0,.516-.162.683.683,0,0,0,.243-.591V7.55A.852.852,0,0,1,10.654,7.631Zm5.162,1.089A1.887,1.887,0,0,1,15.4,7.5a1.9,1.9,0,0,1,.413-1.22,1.506,1.506,0,0,1,1.25-.516,1.508,1.508,0,0,1,1.251.516,1.9,1.9,0,0,1,.411,1.22,1.886,1.886,0,0,1-.411,1.225,1.517,1.517,0,0,1-1.251.508A1.516,1.516,0,0,1,15.815,8.721Zm.673-1.978a1.222,1.222,0,0,0-.2.753,1.227,1.227,0,0,0,.2.754.753.753,0,0,0,1.147,0,1.228,1.228,0,0,0,.2-.754,1.222,1.222,0,0,0-.2-.753.756.756,0,0,0-1.147,0ZM5.522,4.083a1.573,1.573,0,0,1-.5-1.3,1.762,1.762,0,0,1,.449-1.3,1.564,1.564,0,0,1,1.163-.45,1.828,1.828,0,0,1,.765.153,1.317,1.317,0,0,1,.563.482,1.582,1.582,0,0,1,.259.672,4.2,4.2,0,0,1,.03.647H5.882a.77.77,0,0,0,.346.679.821.821,0,0,0,.457.109.728.728,0,0,0,.478-.129.589.589,0,0,0,.117-.129h.909a1.141,1.141,0,0,1-.3.494,1.582,1.582,0,0,1-1.225.474A1.773,1.773,0,0,1,5.522,4.083ZM6.129,1.92a.879.879,0,0,0-.228.5H7.368a.707.707,0,0,0-.228-.513.736.736,0,0,0-.5-.176A.677.677,0,0,0,6.129,1.92ZM21.087,3.966a1.875,1.875,0,0,1-.413-1.225,1.888,1.888,0,0,1,.413-1.219,1.5,1.5,0,0,1,1.25-.516,1.505,1.505,0,0,1,1.251.516A1.9,1.9,0,0,1,24,2.741a1.883,1.883,0,0,1-.411,1.225,1.515,1.515,0,0,1-1.251.51A1.51,1.51,0,0,1,21.087,3.966Zm.673-1.978a1.212,1.212,0,0,0-.2.753,1.222,1.222,0,0,0,.2.756.753.753,0,0,0,1.147,0,1.243,1.243,0,0,0,.2-.756,1.233,1.233,0,0,0-.2-.753.756.756,0,0,0-1.147,0ZM11.063,4.01a1.817,1.817,0,0,1-.39-1.208,1.841,1.841,0,0,1,.432-1.3A1.543,1.543,0,0,1,12.3,1.033a1.873,1.873,0,0,1,1.057.274,1.257,1.257,0,0,1,.486.971h-.918a.748.748,0,0,0-.129-.329.558.558,0,0,0-.471-.2.618.618,0,0,0-.622.427,1.678,1.678,0,0,0-.089.6,1.532,1.532,0,0,0,.089.574.6.6,0,0,0,.606.407.554.554,0,0,0,.447-.161.774.774,0,0,0,.161-.419h.916a1.38,1.38,0,0,1-.3.736,1.468,1.468,0,0,1-1.251.558A1.5,1.5,0,0,1,11.063,4.01Zm4.064.457a1.157,1.157,0,0,1-.737-.252A.9.9,0,0,1,14.1,3.5a.928.928,0,0,1,.468-.871,2.048,2.048,0,0,1,.754-.209l.291-.036a1.3,1.3,0,0,0,.341-.076.255.255,0,0,0,.184-.242A.288.288,0,0,0,16,1.784a.9.9,0,0,0-.416-.076.544.544,0,0,0-.433.15.612.612,0,0,0-.122.3H14.2a1.269,1.269,0,0,1,.242-.7,1.4,1.4,0,0,1,1.167-.432,2.1,2.1,0,0,1,.957.212.818.818,0,0,1,.418.8V3.263c-.016.213,0,1.208-1.656,1.208C15.266,4.471,15.2,4.469,15.128,4.466Zm.843-1.607a1.58,1.58,0,0,1-.229.059l-.195.036a1.3,1.3,0,0,0-.393.115.393.393,0,0,0-.2.363.38.38,0,0,0,.123.316.475.475,0,0,0,.3.1.9.9,0,0,0,.516-.162.683.683,0,0,0,.245-.589V2.777A.861.861,0,0,1,15.971,2.859Zm1.668,1.169a1.773,1.773,0,0,1-.39-1.184,2.1,2.1,0,0,1,.383-1.332,1.245,1.245,0,0,1,1.025-.478,1.054,1.054,0,0,1,.525.129,1.043,1.043,0,0,1,.372.36l0-.916c0-.694.862-.6.862-.6V3.117A1.384,1.384,0,0,1,18.86,4.469,1.648,1.648,0,0,1,17.638,4.028Zm.662-1.97a1.308,1.308,0,0,0-.175.7A1.372,1.372,0,0,0,18.3,3.5a.6.6,0,0,0,.539.271.627.627,0,0,0,.549-.27,1.178,1.178,0,0,0,.189-.7,1.125,1.125,0,0,0-.3-.876.651.651,0,0,0-.432-.156A.6.6,0,0,0,18.3,2.058ZM8.651,4.4v-1.7a1.588,1.588,0,0,1,1.777-1.672l.039,0,.073,0V1.91c-.055-.006-.1-.009-.143-.011s-.075,0-.1,0a.7.7,0,0,0-.689.334,1.308,1.308,0,0,0-.1.58V4.4ZM3.9,4.4V2.431a.55.55,0,0,0-.575-.608.577.577,0,0,0-.594.608V4.4H1.946V2.431a.546.546,0,0,0-.57-.608.573.573,0,0,0-.594.608V4.4H0V2.45A1.343,1.343,0,0,1,1.376,1.021a1.2,1.2,0,0,1,.972.455,1.247,1.247,0,0,1,.974-.455A1.306,1.306,0,0,1,4.68,2.45V4.4Z" transform="translate(0 0)"/>
</svg>
